FT88-Italic.ufo
<glyph name="parenleft" format="2">
	<advance width="700"/>
	<unicode hex="0028"/>
	<guideline x="700"/>
	<guideline x="-74"/>
	<guideline x="-74"/>
	<outline>
		<contour>
			<point x="200" y="100" type="line"/>
			<point x="300" y="100" type="line"/>
			<point x="300" y="0" type="line"/>
			<point x="400" y="0" type="line"/>
			<point x="400" y="-100" type="line"/>
			<point x="500" y="-100" type="line"/>
			<point x="500" y="0" type="line"/>
			<point x="400" y="0" type="line"/>
			<point x="400" y="100" type="line"/>
			<point x="300" y="100" type="line"/>
			<point x="300" y="400" type="line"/>
			<point x="200" y="400" type="line"/>
		</contour>
		<contour>
			<point x="400" y="400" type="line"/>
			<point x="400" y="500" type="line"/>
			<point x="300" y="500" type="line"/>
			<point x="300" y="400" type="line"/>
		</contour>
		<contour>
			<point x="600" y="600" type="line"/>
			<point x="600" y="700" type="line"/>
			<point x="500" y="700" type="line"/>
			<point x="500" y="600" type="line"/>
		</contour>
		<contour>
			<point x="600" y="800" type="line"/>
			<point x="600" y="700" type="line"/>
			<point x="700" y="700" type="line"/>
			<point x="700" y="800" type="line"/>
		</contour>
		<contour>
			<point x="500" y="500" type="line"/>
			<point x="500" y="600" type="line"/>
			<point x="400" y="600" type="line"/>
			<point x="400" y="500" type="line"/>
		</contour>
	</outline>
</glyph>
<glyph name="one" format="2">
	<advance width="700"/>
	<unicode hex="0031"/>
	<guideline x="700"/>
	<outline>
		<contour>
			<point x="400" y="200" type="line"/>
			<point x="400" y="500" type="line"/>
			<point x="300" y="500" type="line"/>
			<point x="300" y="200" type="line"/>
		</contour>
		<contour>
			<point x="300" y="700" type="line"/>
			<point x="300" y="600" type="line"/>
			<point x="400" y="600" type="line"/>
			<point x="400" y="500" type="line"/>
			<point x="500" y="500" type="line"/>
			<point x="500" y="700" type="line"/>
		</contour>
		<contour>
			<point x="300" y="0" type="line"/>
			<point x="300" y="200" type="line"/>
			<point x="200" y="200" type="line"/>
			<point x="200" y="0" type="line"/>
		</contour>
	</outline>
</glyph>
<glyph name="three" format="2">
	<advance width="700"/>
	<unicode hex="0033"/>
	<guideline x="700"/>
	<outline>
		<contour>
			<point x="600" y="500" type="line"/>
			<point x="600" y="700" type="line"/>
			<point x="300" y="700" type="line"/>
			<point x="300" y="600" type="line"/>
			<point x="500" y="600" type="line"/>
			<point x="500" y="500" type="line"/>
		</contour>
		<contour>
			<point x="300" y="100" type="line"/>
			<point x="100" y="100" type="line"/>
			<point x="100" y="0" type="line"/>
			<point x="300" y="0" type="line"/>
		</contour>
		<contour>
			<point x="200" y="400" type="line"/>
			<point x="200" y="300" type="line"/>
			<point x="398" y="300" type="line"/>
			<point x="398" y="400" type="line"/>
		</contour>
		<contour>
			<point x="400" y="200" type="line"/>
			<point x="300" y="200" type="line"/>
			<point x="300" y="100" type="line"/>
			<point x="400" y="100" type="line"/>
		</contour>
		<contour>
			<point x="400" y="300" type="line"/>
			<point x="400" y="200" type="line"/>
			<point x="500" y="200" type="line"/>
			<point x="500" y="300" type="line"/>
		</contour>
		<contour>
			<point x="500" y="500" type="line"/>
			<point x="400" y="500" type="line"/>
			<point x="400" y="400" type="line"/>
			<point x="500" y="400" type="line"/>
		</contour>
		<contour>
			<point x="0" y="200" type="line"/>
			<point x="0" y="100" type="line"/>
			<point x="100" y="100" type="line"/>
			<point x="100" y="200" type="line"/>
		</contour>
	</outline>
</glyph>
<glyph name="equal" format="2">
	<advance width="700"/>
	<unicode hex="003D"/>
	<guideline x="700"/>
	<outline>
		<contour>
			<point x="100" y="500" type="line"/>
			<point x="100" y="400" type="line"/>
			<point x="600" y="400" type="line"/>
			<point x="600" y="500" type="line"/>
		</contour>
		<contour>
			<point x="100" y="300" type="line"/>
			<point x="100" y="200" type="line"/>
			<point x="600" y="200" type="line"/>
			<point x="600" y="300" type="line"/>
		</contour>
	</outline>
</glyph>
<glyph name="D" format="2">
	<advance width="700"/>
	<unicode hex="0044"/>
	<guideline x="800"/>
	<outline>
		<contour>
			<point x="600" y="400" type="line"/>
			<point x="700" y="400" type="line"/>
			<point x="700" y="600" type="line"/>
			<point x="600" y="600" type="line"/>
			<point x="600" y="700" type="line"/>
			<point x="200" y="700" type="line"/>
			<point x="200" y="500" type="line"/>
			<point x="300" y="500" type="line"/>
			<point x="300" y="600" type="line"/>
			<point x="600" y="600" type="line"/>
		</contour>
		<contour>
			<point x="400" y="100" type="line"/>
			<point x="100" y="100" type="line"/>
			<point x="100" y="200" type="line"/>
			<point x="0" y="200" type="line"/>
			<point x="0" y="0" type="line"/>
			<point x="400" y="0" type="line"/>
		</contour>
		<contour>
			<point x="200" y="200" type="line"/>
			<point x="200" y="500" type="line"/>
			<point x="100" y="500" type="line"/>
			<point x="100" y="200" type="line"/>
		</contour>
		<contour>
			<point x="600" y="200" type="line"/>
			<point x="600" y="400" type="line"/>
			<point x="500" y="400" type="line"/>
			<point x="500" y="200" type="line"/>
		</contour>
		<contour>
			<point x="400" y="200" type="line"/>
			<point x="400" y="100" type="line"/>
			<point x="500" y="100" type="line"/>
			<point x="500" y="200" type="line"/>
		</contour>
	</outline>
</glyph>
<glyph name="E" format="2">
	<advance width="700"/>
	<unicode hex="0045"/>
	<guideline x="800"/>
	<outline>
		<contour>
			<point x="300" y="600" type="line"/>
			<point x="700" y="600" type="line"/>
			<point x="700" y="700" type="line"/>
			<point x="200" y="700" type="line"/>
			<point x="200" y="500" type="line"/>
			<point x="300" y="500" type="line"/>
		</contour>
		<contour>
			<point x="500" y="100" type="line"/>
			<point x="100" y="100" type="line"/>
			<point x="100" y="200" type="line"/>
			<point x="0" y="200" type="line"/>
			<point x="0" y="0" type="line"/>
			<point x="500" y="0" type="line"/>
		</contour>
		<contour>
			<point x="200" y="200" type="line"/>
			<point x="200" y="300" type="line"/>
			<point x="500" y="300" type="line"/>
			<point x="500" y="400" type="line"/>
			<point x="200" y="400" type="line"/>
			<point x="200" y="500" type="line"/>
			<point x="100" y="500" type="line"/>
			<point x="100" y="200" type="line"/>
		</contour>
	</outline>
</glyph>
<glyph name="J" format="2">
	<advance width="700"/>
	<unicode hex="004A"/>
	<guideline x="800"/>
	<outline>
		<contour>
			<point x="400" y="700" type="line"/>
			<point x="400" y="600" type="line"/>
			<point x="500" y="600" type="line"/>
			<point x="500" y="500" type="line"/>
			<point x="600" y="500" type="line"/>
			<point x="600" y="600" type="line"/>
			<point x="700" y="600" type="line"/>
			<point x="700" y="700" type="line"/>
		</contour>
		<contour>
			<point x="100" y="100" type="line"/>
			<point x="100" y="0" type="line"/>
			<point x="300" y="0" type="line"/>
			<point x="300" y="100" type="line"/>
			<point x="100" y="100" type="line"/>
			<point x="100" y="200" type="line"/>
			<point x="0" y="200" type="line"/>
			<point x="0" y="100" type="line"/>
		</contour>
		<contour>
			<point x="400" y="500" type="line"/>
			<point x="400" y="300" type="line"/>
			<point x="500" y="300" type="line"/>
			<point x="500" y="500" type="line"/>
		</contour>
		<contour>
			<point x="300" y="300" type="line"/>
			<point x="300" y="100" type="line"/>
			<point x="400" y="100" type="line"/>
			<point x="400" y="300" type="line"/>
		</contour>
	</outline>
</glyph>
<glyph name="L" format="2">
	<advance width="700"/>
	<unicode hex="004C"/>
	<guideline x="900"/>
	<outline>
		<contour>
			<point x="0" y="200" type="line"/>
			<point x="0" y="0" type="line"/>
			<point x="500" y="0" type="line"/>
			<point x="500" y="100" type="line"/>
			<point x="100" y="100" type="line"/>
			<point x="100" y="200" type="line"/>
		</contour>
		<contour>
			<point x="200" y="200" type="line"/>
			<point x="200" y="500" type="line"/>
			<point x="100" y="500" type="line"/>
			<point x="100" y="200" type="line"/>
		</contour>
		<contour>
			<point x="200" y="500" type="line"/>
			<point x="300" y="500" type="line"/>
			<point x="300" y="700" type="line"/>
			<point x="200" y="700" type="line"/>
		</contour>
	</outline>
</glyph>
<glyph name="U" format="2">
	<advance width="700"/>
	<unicode hex="0055"/>
	<guideline x="700"/>
	<outline>
		<contour>
			<point x="100" y="300" type="line"/>
			<point x="0" y="300" type="line"/>
			<point x="0" y="100" type="line"/>
			<point x="100" y="100" type="line"/>
			<point x="100" y="0" type="line"/>
			<point x="400" y="0" type="line"/>
			<point x="400" y="100" type="line"/>
			<point x="100" y="100" type="line"/>
		</contour>
		<contour>
			<point x="500" y="100" type="line"/>
			<point x="500" y="200" type="line"/>
			<point x="500" y="300" type="line"/>
			<point x="400" y="300" type="line"/>
			<point x="400" y="100" type="line"/>
		</contour>
		<contour>
			<point x="600" y="700" type="line"/>
			<point x="600" y="500" type="line"/>
			<point x="700" y="500" type="line"/>
			<point x="700" y="700" type="line"/>
		</contour>
		<contour>
			<point x="200" y="300" type="line"/>
			<point x="200" y="500" type="line"/>
			<point x="100" y="500" type="line"/>
			<point x="100" y="300" type="line"/>
		</contour>
		<contour>
			<point x="200" y="500" type="line"/>
			<point x="300" y="500" type="line"/>
			<point x="300" y="700" type="line"/>
			<point x="200" y="700" type="line"/>
		</contour>
		<contour>
			<point x="600" y="300" type="line"/>
			<point x="600" y="500" type="line"/>
			<point x="500" y="500" type="line"/>
			<point x="500" y="300" type="line"/>
		</contour>
	</outline>
</glyph>
<glyph name="bracketleft" format="2">
	<advance width="700"/>
	<unicode hex="005B"/>
	<outline>
		<contour>
			<point x="400" y="800" type="line"/>
			<point x="400" y="500" type="line"/>
			<point x="500" y="500" type="line"/>
			<point x="500" y="700" type="line"/>
			<point x="600" y="700" type="line"/>
			<point x="600" y="800" type="line"/>
		</contour>
		<contour>
			<point x="200" y="-100" type="line"/>
			<point x="400" y="-100" type="line"/>
			<point x="400" y="0" type="line"/>
			<point x="300" y="0" type="line"/>
			<point x="300" y="200" type="line"/>
			<point x="200" y="200" type="line"/>
		</contour>
		<contour>
			<point x="400" y="200" type="line"/>
			<point x="400" y="500" type="line"/>
			<point x="300" y="500" type="line"/>
			<point x="300" y="200" type="line"/>
		</contour>
	</outline>
</glyph>
<glyph name="f" format="2">
	<advance width="700"/>
	<unicode hex="0066"/>
	<guideline x="800"/>
	<outline>
		<contour>
			<point x="400" y="100" type="line"/>
			<point x="400" y="300" type="line"/>
			<point x="600" y="300" type="line"/>
			<point x="600" y="400" type="line"/>
			<point x="500" y="400" type="line"/>
			<point x="500" y="600" type="line"/>
			<point x="400" y="600" type="line"/>
			<point x="400" y="400" type="line"/>
			<point x="200" y="400" type="line"/>
			<point x="200" y="300" type="line"/>
			<point x="300" y="300" type="line"/>
			<point x="300" y="100" type="line"/>
		</contour>
		<contour>
			<point x="500" y="700" type="line"/>
			<point x="500" y="600" type="line"/>
			<point x="700" y="600" type="line"/>
			<point x="700" y="700" type="line"/>
		</contour>
		<contour>
			<point x="0" y="-100" type="line"/>
			<point x="0" y="-200" type="line"/>
			<point x="200" y="-200" type="line"/>
			<point x="200" y="-100" type="line"/>
		</contour>
		<contour>
			<point x="200" y="100" type="line"/>
			<point x="200" y="-100" type="line"/>
			<point x="300" y="-100" type="line"/>
			<point x="300" y="100" type="line"/>
		</contour>
	</outline>
</glyph>
<glyph name="paragraph" format="2">
	<advance width="700"/>
	<unicode hex="00B6"/>
	<outline>
		<contour>
			<point x="700" y="700" type="line"/>
			<point x="200" y="700" type="line"/>
			<point x="200" y="600" type="line"/>
			<point x="100" y="600" type="line"/>
			<point x="100" y="400" type="line"/>
			<point x="200" y="400" type="line"/>
			<point x="200" y="200" type="line"/>
			<point x="300" y="200" type="line"/>
			<point x="300" y="-100" type="line"/>
			<point x="400" y="-100" type="line"/>
			<point x="400" y="200" type="line"/>
			<point x="300" y="200" type="line"/>
			<point x="300" y="399" type="line"/>
			<point x="400" y="399" type="line"/>
			<point x="400" y="200" type="line"/>
			<point x="500" y="200" type="line"/>
			<point x="500" y="399" type="line"/>
			<point x="400" y="399" type="line"/>
			<point x="400" y="600" type="line"/>
			<point x="500" y="600" type="line"/>
			<point x="500" y="400" type="line"/>
			<point x="600" y="400" type="line"/>
			<point x="600" y="600" type="line"/>
			<point x="700" y="600" type="line"/>
		</contour>
		<contour>
			<point x="100" y="200" type="line"/>
			<point x="100" y="-100" type="line"/>
			<point x="200" y="-100" type="line"/>
			<point x="200" y="200" type="line"/>
		</contour>
	</outline>
</glyph>
<glyph name="onehalf" format="2">
	<advance width="700"/>
	<unicode hex="00BD"/>
	<outline>
		<contour>
			<point x="400" y="300" type="line"/>
			<point x="400" y="200" type="line"/>
			<point x="500" y="200" type="line"/>
			<point x="500" y="100" type="line"/>
			<point x="500" y="0" type="line"/>
			<point x="700" y="0" type="line"/>
			<point x="700" y="100" type="line"/>
			<point x="600" y="100" type="line"/>
			<point x="600" y="300" type="line"/>
		</contour>
		<contour>
			<point x="0" y="700" type="line"/>
			<point x="0" y="600" type="line"/>
			<point x="100" y="600" type="line"/>
			<point x="100" y="400" type="line"/>
			<point x="200" y="400" type="line"/>
			<point x="200" y="700" type="line"/>
		</contour>
		<component base="fraction"/>
	</outline>
</glyph>
<glyph name="Ccedilla" format="2">
	<advance width="700"/>
	<unicode hex="00C7"/>
	<outline>
		<contour>
			<point x="100" y="0" type="line"/>
			<point x="100" y="-100" type="line"/>
			<point x="200" y="-100" type="line"/>
			<point x="200" y="0" type="line"/>
		</contour>
		<contour>
			<point x="0" y="-100" type="line"/>
			<point x="0" y="-200" type="line"/>
			<point x="100" y="-200" type="line"/>
			<point x="100" y="-100" type="line"/>
		</contour>
		<component base="C"/>
	</outline>
</glyph>
<glyph name="Igrave" format="2">
	<advance width="700"/>
	<unicode hex="00CC"/>
	<outline>
		<contour>
			<point x="300" y="100" type="line"/>
			<point x="300" y="300" type="line"/>
			<point x="200" y="300" type="line"/>
			<point x="200" y="100" type="line"/>
			<point x="100" y="100" type="line"/>
			<point x="100" y="0" type="line"/>
			<point x="400" y="0" type="line"/>
			<point x="400" y="100" type="line"/>
		</contour>
		<contour>
			<point x="200" y="500" type="line"/>
			<point x="200" y="400" type="line"/>
			<point x="300" y="400" type="line"/>
			<point x="300" y="300" type="line"/>
			<point x="400" y="300" type="line"/>
			<point x="400" y="400" type="line"/>
			<point x="500" y="400" type="line"/>
			<point x="500" y="500" type="line"/>
		</contour>
		<component base="grave" xOffset="100" yOffset="100"/>
	</outline>
</glyph>
<glyph name="Icircumflex" format="2">
	<advance width="700"/>
	<unicode hex="00CE"/>
	<outline>
		<contour>
			<point x="300" y="100" type="line"/>
			<point x="300" y="300" type="line"/>
			<point x="200" y="300" type="line"/>
			<point x="200" y="100" type="line"/>
			<point x="100" y="100" type="line"/>
			<point x="100" y="0" type="line"/>
			<point x="400" y="0" type="line"/>
			<point x="400" y="100" type="line"/>
		</contour>
		<contour>
			<point x="200" y="500" type="line"/>
			<point x="200" y="400" type="line"/>
			<point x="300" y="400" type="line"/>
			<point x="300" y="300" type="line"/>
			<point x="400" y="300" type="line"/>
			<point x="400" y="400" type="line"/>
			<point x="500" y="400" type="line"/>
			<point x="500" y="500" type="line"/>
		</contour>
		<component base="circumflex" xOffset="98" yOffset="100"/>
	</outline>
</glyph>
<glyph name="Oacute" format="2">
	<advance width="700"/>
	<unicode hex="00D3"/>
	<outline>
		<contour>
			<point x="100" y="100" type="line"/>
			<point x="100" y="300" type="line"/>
			<point x="0" y="300" type="line"/>
			<point x="0" y="100" type="line"/>
			<point x="100" y="100" type="line"/>
			<point x="100" y="0" type="line"/>
			<point x="400" y="0" type="line"/>
			<point x="400" y="100" type="line"/>
		</contour>
		<contour>
			<point x="500" y="400" type="line"/>
			<point x="500" y="200" type="line"/>
			<point x="600" y="200" type="line"/>
			<point x="600" y="400" type="line"/>
			<point x="500" y="400" type="line"/>
			<point x="500" y="500" type="line"/>
			<point x="200" y="500" type="line"/>
			<point x="200" y="400" type="line"/>
		</contour>
		<contour>
			<point x="400" y="200" type="line"/>
			<point x="400" y="100" type="line"/>
			<point x="500" y="100" type="line"/>
			<point x="500" y="200" type="line"/>
		</contour>
		<contour>
			<point x="200" y="300" type="line"/>
			<point x="200" y="400" type="line"/>
			<point x="100" y="400" type="line"/>
			<point x="100" y="300" type="line"/>
		</contour>
		<component base="acute" xOffset="200" yOffset="100"/>
	</outline>
</glyph>
<glyph name="Odieresis" format="2">
	<advance width="700"/>
	<unicode hex="00D6"/>
	<outline>
		<contour>
			<point x="100" y="100" type="line"/>
			<point x="100" y="300" type="line"/>
			<point x="0" y="300" type="line"/>
			<point x="0" y="100" type="line"/>
			<point x="100" y="100" type="line"/>
			<point x="100" y="0" type="line"/>
			<point x="400" y="0" type="line"/>
			<point x="400" y="100" type="line"/>
		</contour>
		<contour>
			<point x="500" y="400" type="line"/>
			<point x="500" y="200" type="line"/>
			<point x="600" y="200" type="line"/>
			<point x="600" y="400" type="line"/>
			<point x="500" y="400" type="line"/>
			<point x="500" y="500" type="line"/>
			<point x="200" y="500" type="line"/>
			<point x="200" y="400" type="line"/>
		</contour>
		<contour>
			<point x="400" y="200" type="line"/>
			<point x="400" y="100" type="line"/>
			<point x="500" y="100" type="line"/>
			<point x="500" y="200" type="line"/>
		</contour>
		<contour>
			<point x="200" y="300" type="line"/>
			<point x="200" y="400" type="line"/>
			<point x="100" y="400" type="line"/>
			<point x="100" y="300" type="line"/>
		</contour>
		<component base="dieresis" xOffset="100"/>
	</outline>
</glyph>
<glyph name="Ucircumflex" format="2">
	<advance width="700"/>
	<unicode hex="00DB"/>
	<outline>
		<contour>
			<point x="400" y="0" type="line"/>
			<point x="400" y="100" type="line"/>
			<point x="100" y="100" type="line"/>
			<point x="100" y="300" type="line"/>
			<point x="0" y="300" type="line"/>
			<point x="0" y="100" type="line"/>
			<point x="100" y="100" type="line"/>
			<point x="100" y="0" type="line"/>
		</contour>
		<contour>
			<point x="400" y="100" type="line"/>
			<point x="500" y="100" type="line"/>
			<point x="500" y="300" type="line"/>
			<point x="400" y="300" type="line"/>
		</contour>
		<contour>
			<point x="100" y="500" type="line"/>
			<point x="100" y="300" type="line"/>
			<point x="200" y="300" type="line"/>
			<point x="200" y="500" type="line"/>
		</contour>
		<contour>
			<point x="500" y="500" type="line"/>
			<point x="500" y="300" type="line"/>
			<point x="600" y="300" type="line"/>
			<point x="600" y="500" type="line"/>
		</contour>
		<component base="circumflex" xOffset="-2" yOffset="100"/>
	</outline>
</glyph>
<glyph name="Udieresis" format="2">
	<advance width="700"/>
	<unicode hex="00DC"/>
	<outline>
		<contour>
			<point x="400" y="0" type="line"/>
			<point x="400" y="100" type="line"/>
			<point x="100" y="100" type="line"/>
			<point x="100" y="400" type="line"/>
			<point x="0" y="400" type="line"/>
			<point x="0" y="100" type="line"/>
			<point x="100" y="100" type="line"/>
			<point x="100" y="0" type="line"/>
		</contour>
		<contour>
			<point x="400" y="100" type="line"/>
			<point x="500" y="100" type="line"/>
			<point x="500" y="400" type="line"/>
			<point x="400" y="400" type="line"/>
		</contour>
		<contour>
			<point x="100" y="600" type="line"/>
			<point x="100" y="400" type="line"/>
			<point x="200" y="400" type="line"/>
			<point x="200" y="600" type="line"/>
		</contour>
		<contour>
			<point x="500" y="600" type="line"/>
			<point x="500" y="400" type="line"/>
			<point x="600" y="400" type="line"/>
			<point x="600" y="600" type="line"/>
		</contour>
		<component base="dieresis" yOffset="100"/>
	</outline>
</glyph>
<glyph name="agrave" format="2">
	<advance width="700"/>
	<unicode hex="00E0"/>
	<outline>
		<contour>
			<point x="400" y="700" type="line"/>
			<point x="400" y="600" type="line"/>
			<point x="500" y="600" type="line"/>
			<point x="500" y="700" type="line"/>
			<point x="400" y="700" type="line"/>
			<point x="400" y="800" type="line"/>
			<point x="300" y="800" type="line"/>
			<point x="300" y="700" type="line"/>
		</contour>
		<component base="a" xOffset="-50"/>
	</outline>
</glyph>
<glyph name="acircumflex" format="2">
	<advance width="700"/>
	<unicode hex="00E2"/>
	<outline>
		<contour>
			<point x="400" y="700" type="line"/>
			<point x="400" y="600" type="line"/>
			<point x="500" y="600" type="line"/>
			<point x="500" y="700" type="line"/>
			<point x="400" y="700" type="line"/>
			<point x="400" y="800" type="line"/>
			<point x="300" y="800" type="line"/>
			<point x="300" y="700" type="line"/>
		</contour>
		<contour>
			<point x="200" y="700" type="line"/>
			<point x="200" y="600" type="line"/>
			<point x="300" y="600" type="line"/>
			<point x="300" y="700" type="line"/>
		</contour>
		<component base="a" xOffset="-50"/>
	</outline>
</glyph>
<glyph name="egrave" format="2">
	<advance width="800"/>
	<unicode hex="00E8"/>
	<outline>
		<contour>
			<point x="400" y="700" type="line"/>
			<point x="400" y="600" type="line"/>
			<point x="500" y="600" type="line"/>
			<point x="500" y="700" type="line"/>
			<point x="400" y="700" type="line"/>
			<point x="400" y="800" type="line"/>
			<point x="300" y="800" type="line"/>
			<point x="300" y="700" type="line"/>
		</contour>
		<component base="e"/>
	</outline>
</glyph>
<glyph name="edieresis" format="2">
	<advance width="800"/>
	<unicode hex="00EB"/>
	<outline>
		<contour>
			<point x="300" y="700" type="line"/>
			<point x="300" y="600" type="line"/>
			<point x="400" y="600" type="line"/>
			<point x="400" y="700" type="line"/>
		</contour>
		<contour>
			<point x="500" y="700" type="line"/>
			<point x="500" y="600" type="line"/>
			<point x="600" y="600" type="line"/>
			<point x="600" y="700" type="line"/>
		</contour>
		<component base="e"/>
	</outline>
</glyph>
<glyph name="ntilde" format="2">
	<advance width="700"/>
	<unicode hex="00F1"/>
	<outline>
		<contour>
			<point x="500" y="700" type="line"/>
			<point x="500" y="600" type="line"/>
			<point x="600" y="600" type="line"/>
			<point x="600" y="700" type="line"/>
			<point x="500" y="700" type="line"/>
			<point x="500" y="800" type="line"/>
			<point x="400" y="800" type="line"/>
			<point x="400" y="700" type="line"/>
		</contour>
		<contour>
			<point x="600" y="800" type="line"/>
			<point x="600" y="700" type="line"/>
			<point x="700" y="700" type="line"/>
			<point x="700" y="800" type="line"/>
		</contour>
		<contour>
			<point x="300" y="700" type="line"/>
			<point x="300" y="600" type="line"/>
			<point x="400" y="600" type="line"/>
			<point x="400" y="700" type="line"/>
		</contour>
		<component base="n"/>
	</outline>
</glyph>
<glyph name="ograve" format="2">
	<advance width="800"/>
	<unicode hex="00F2"/>
	<outline>
		<contour>
			<point x="300" y="800" type="line"/>
			<point x="300" y="700" type="line"/>
			<point x="400" y="700" type="line"/>
			<point x="400" y="600" type="line"/>
			<point x="500" y="600" type="line"/>
			<point x="500" y="700" type="line"/>
			<point x="400" y="700" type="line"/>
			<point x="400" y="800" type="line"/>
		</contour>
		<component base="o"/>
	</outline>
</glyph>
<glyph name="ugrave" format="2">
	<advance width="700"/>
	<unicode hex="00F9"/>
	<outline>
		<contour>
			<point x="400" y="700" type="line"/>
			<point x="400" y="600" type="line"/>
			<point x="500" y="600" type="line"/>
			<point x="500" y="700" type="line"/>
			<point x="400" y="700" type="line"/>
			<point x="400" y="800" type="line"/>
			<point x="300" y="800" type="line"/>
			<point x="300" y="700" type="line"/>
		</contour>
		<component base="u"/>
	</outline>
</glyph>
<glyph name="ucircumflex" format="2">
	<advance width="700"/>
	<unicode hex="00FB"/>
	<outline>
		<contour>
			<point x="500" y="700" type="line"/>
			<point x="500" y="600" type="line"/>
			<point x="600" y="600" type="line"/>
			<point x="600" y="700" type="line"/>
			<point x="500" y="700" type="line"/>
			<point x="500" y="800" type="line"/>
			<point x="400" y="800" type="line"/>
			<point x="400" y="700" type="line"/>
		</contour>
		<contour>
			<point x="300" y="700" type="line"/>
			<point x="300" y="600" type="line"/>
			<point x="400" y="600" type="line"/>
			<point x="400" y="700" type="line"/>
		</contour>
		<component base="u"/>
	</outline>
</glyph>
<glyph name="yacute" format="2">
	<advance width="700"/>
	<unicode hex="00FD"/>
	<outline>
		<contour>
			<point x="400" y="700" type="line"/>
			<point x="400" y="600" type="line"/>
			<point x="500" y="600" type="line"/>
			<point x="500" y="700" type="line"/>
		</contour>
		<contour>
			<point x="500" y="800" type="line"/>
			<point x="500" y="700" type="line"/>
			<point x="600" y="700" type="line"/>
			<point x="600" y="800" type="line"/>
		</contour>
		<component base="y"/>
	</outline>
</glyph>
<glyph name="ydieresis" format="2">
	<advance width="700"/>
	<unicode hex="00FF"/>
	<outline>
		<contour>
			<point x="300" y="700" type="line"/>
			<point x="300" y="600" type="line"/>
			<point x="400" y="600" type="line"/>
			<point x="400" y="700" type="line"/>
		</contour>
		<contour>
			<point x="500" y="700" type="line"/>
			<point x="500" y="600" type="line"/>
			<point x="600" y="600" type="line"/>
			<point x="600" y="700" type="line"/>
		</contour>
		<component base="y"/>
	</outline>
</glyph>
<glyph name="Ecaron" format="2">
	<advance width="700"/>
	<unicode hex="011A"/>
	<outline>
		<contour>
			<point x="100" y="500" type="line"/>
			<point x="100" y="200" type="line"/>
			<point x="400" y="200" type="line"/>
			<point x="400" y="300" type="line"/>
			<point x="200" y="300" type="line"/>
			<point x="200" y="400" type="line"/>
			<point x="600" y="400" type="line"/>
			<point x="600" y="500" type="line"/>
		</contour>
		<contour>
			<point x="500" y="100" type="line"/>
			<point x="100" y="100" type="line"/>
			<point x="100" y="200" type="line"/>
			<point x="0" y="200" type="line"/>
			<point x="0" y="0" type="line"/>
			<point x="500" y="0" type="line"/>
		</contour>
		<component base="caron" xOffset="100" yOffset="100"/>
	</outline>
</glyph>
<glyph name="Zcaron" format="2">
	<advance width="700"/>
	<unicode hex="017D"/>
	<outline>
		<contour>
			<point x="500" y="100" type="line"/>
			<point x="200" y="100" type="line"/>
			<point x="200" y="200" type="line"/>
			<point x="100" y="200" type="line"/>
			<point x="100" y="100" type="line"/>
			<point x="0" y="100" type="line"/>
			<point x="0" y="0" type="line"/>
			<point x="500" y="0" type="line"/>
		</contour>
		<contour>
			<point x="400" y="400" type="line"/>
			<point x="500" y="400" type="line"/>
			<point x="500" y="500" type="line"/>
			<point x="600" y="500" type="line"/>
			<point x="600" y="600" type="line"/>
			<point x="100" y="600" type="line"/>
			<point x="100" y="500" type="line"/>
			<point x="400" y="500" type="line"/>
		</contour>
		<contour>
			<point x="200" y="300" type="line"/>
			<point x="200" y="200" type="line"/>
			<point x="300" y="200" type="line"/>
			<point x="300" y="300" type="line"/>
		</contour>
		<contour>
			<point x="300" y="300" type="line"/>
			<point x="400" y="300" type="line"/>
			<point x="400" y="400" type="line"/>
			<point x="300" y="400" type="line"/>
		</contour>
		<component base="caron" yOffset="100"/>
	</outline>
</glyph>
<glyph name="oslashacute" format="2">
	<advance width="700"/>
	<unicode hex="01FF"/>
	<outline>
		<contour>
			<point x="200" y="200" type="line"/>
			<point x="200" y="0" type="line"/>
			<point x="300" y="0" type="line"/>
			<point x="300" y="200" type="line"/>
		</contour>
		<contour>
			<point x="400" y="500" type="line"/>
			<point x="400" y="300" type="line"/>
			<point x="500" y="300" type="line"/>
			<point x="500" y="500" type="line"/>
		</contour>
		<contour>
			<point x="300" y="300" type="line"/>
			<point x="300" y="200" type="line"/>
			<point x="400" y="200" type="line"/>
			<point x="400" y="300" type="line"/>
		</contour>
		<contour>
			<point x="100" y="0" type="line"/>
			<point x="100" y="-100" type="line"/>
			<point x="200" y="-100" type="line"/>
			<point x="200" y="0" type="line"/>
		</contour>
		<contour>
			<point x="500" y="600" type="line"/>
			<point x="500" y="500" type="line"/>
			<point x="600" y="500" type="line"/>
			<point x="600" y="600" type="line"/>
		</contour>
		<component base="acute" xOffset="200" yOffset="100"/>
		<component base="o"/>
	</outline>
</glyph>
<glyph name="ring" format="2">
	<advance width="700"/>
	<unicode hex="02DA"/>
	<outline>
		<contour>
			<point x="300" y="500" type="line"/>
			<point x="300" y="400" type="line"/>
			<point x="400" y="400" type="line"/>
			<point x="400" y="500" type="line"/>
			<point x="300" y="500" type="line"/>
			<point x="300" y="600" type="line"/>
			<point x="200" y="600" type="line"/>
			<point x="200" y="500" type="line"/>
		</contour>
		<contour>
			<point x="400" y="600" type="line"/>
			<point x="400" y="500" type="line"/>
			<point x="500" y="500" type="line"/>
			<point x="500" y="600" type="line"/>
			<point x="400" y="600" type="line"/>
			<point x="400" y="700" type="line"/>
			<point x="300" y="700" type="line"/>
			<point x="300" y="600" type="line"/>
		</contour>
	</outline>
</glyph>
<glyph name="Ygrave" format="2">
	<advance width="700"/>
	<unicode hex="1EF2"/>
	<outline>
		<contour>
			<point x="400" y="400" type="line"/>
			<point x="300" y="400" type="line"/>
			<point x="300" y="200" type="line"/>
			<point x="400" y="200" type="line"/>
		</contour>
		<contour>
			<point x="200" y="400" type="line"/>
			<point x="300" y="400" type="line"/>
			<point x="300" y="600" type="line"/>
			<point x="200" y="600" type="line"/>
		</contour>
		<contour>
			<point x="200" y="200" type="line"/>
			<point x="200" y="0" type="line"/>
			<point x="300" y="0" type="line"/>
			<point x="300" y="200" type="line"/>
		</contour>
		<contour>
			<point x="400" y="500" type="line"/>
			<point x="400" y="400" type="line"/>
			<point x="500" y="400" type="line"/>
			<point x="500" y="500" type="line"/>
		</contour>
		<contour>
			<point x="600" y="500" type="line"/>
			<point x="600" y="600" type="line"/>
			<point x="500" y="600" type="line"/>
			<point x="500" y="500" type="line"/>
		</contour>
		<component base="grave" xOffset="100" yOffset="100"/>
	</outline>
</glyph>
<glyph name="quoteleft" format="2">
	<advance width="700"/>
	<unicode hex="2018"/>
	<outline>
		<contour>
			<point x="300" y="700" type="line"/>
			<point x="300" y="500" type="line"/>
			<point x="500" y="500" type="line"/>
			<point x="500" y="600" type="line"/>
			<point x="400" y="600" type="line"/>
			<point x="400" y="700" type="line"/>
		</contour>
		<contour>
			<point x="400" y="800" type="line"/>
			<point x="400" y="700" type="line"/>
			<point x="500" y="700" type="line"/>
			<point x="500" y="800" type="line"/>
		</contour>
	</outline>
</glyph>
<glyph name="threeeighths" format="2">
	<advance width="700"/>
	<unicode hex="215C"/>
	<outline>
		<contour>
			<point x="500" y="300" type="line"/>
			<point x="500" y="0" type="line"/>
			<point x="700" y="0" type="line"/>
			<point x="700" y="300" type="line"/>
		</contour>
		<contour>
			<point x="0" y="500" type="line"/>
			<point x="0" y="400" type="line"/>
			<point x="200" y="400" type="line"/>
			<point x="200" y="700" type="line"/>
			<point x="0" y="700" type="line"/>
			<point x="0" y="600" type="line"/>
			<point x="100" y="600" type="line"/>
			<point x="100" y="500" type="line"/>
		</contour>
		<component base="fraction"/>
	</outline>
</glyph>
<glyph name="fiveeighths" format="2">
	<advance width="700"/>
	<unicode hex="215D"/>
	<outline>
		<contour>
			<point x="500" y="300" type="line"/>
			<point x="500" y="0" type="line"/>
			<point x="700" y="0" type="line"/>
			<point x="700" y="300" type="line"/>
		</contour>
		<contour>
			<point x="200" y="400" type="line"/>
			<point x="200" y="600" type="line"/>
			<point x="300" y="600" type="line"/>
			<point x="300" y="700" type="line"/>
			<point x="100" y="700" type="line"/>
			<point x="100" y="500" type="line"/>
			<point x="0" y="500" type="line"/>
			<point x="0" y="400" type="line"/>
		</contour>
		<component base="fraction"/>
	</outline>
</glyph>
<glyph name="uni2206" format="2">
	<advance width="700"/>
	<unicode hex="2206"/>
	<outline>
		<contour>
			<point x="100" y="200" type="line"/>
			<point x="100" y="0" type="line"/>
			<point x="600" y="0" type="line"/>
			<point x="600" y="200" type="line"/>
			<point x="500" y="200" type="line"/>
			<point x="500" y="400" type="line"/>
			<point x="400" y="400" type="line"/>
			<point x="400" y="600" type="line"/>
			<point x="300" y="600" type="line"/>
			<point x="300" y="500" type="line"/>
			<point x="300" y="400" type="line"/>
			<point x="400" y="400" type="line"/>
			<point x="400" y="200" type="line"/>
			<point x="500" y="200" type="line"/>
			<point x="500" y="100" type="line"/>
			<point x="200" y="100" type="line"/>
			<point x="200" y="200" type="line"/>
		</contour>
		<contour>
			<point x="200" y="400" type="line"/>
			<point x="200" y="200" type="line"/>
			<point x="300" y="200" type="line"/>
			<point x="300" y="400" type="line"/>
		</contour>
	</outline>
</glyph>
<glyph name="notequal" format="2">
	<advance width="700"/>
	<unicode hex="2260"/>
	<outline>
		<contour>
			<point x="200" y="300" type="line"/>
			<point x="200" y="100" type="line"/>
			<point x="300" y="100" type="line"/>
			<point x="300" y="300" type="line"/>
		</contour>
		<contour>
			<point x="400" y="600" type="line"/>
			<point x="400" y="400" type="line"/>
			<point x="500" y="400" type="line"/>
			<point x="500" y="600" type="line"/>
		</contour>
		<contour>
			<point x="300" y="400" type="line"/>
			<point x="300" y="300" type="line"/>
			<point x="400" y="300" type="line"/>
			<point x="400" y="400" type="line"/>
		</contour>
		<contour>
			<point x="100" y="100" type="line"/>
			<point x="100" y="0" type="line"/>
			<point x="200" y="0" type="line"/>
			<point x="200" y="100" type="line"/>
		</contour>
		<contour>
			<point x="500" y="700" type="line"/>
			<point x="500" y="600" type="line"/>
			<point x="600" y="600" type="line"/>
			<point x="600" y="700" type="line"/>
		</contour>
		<component base="equal"/>
	</outline>
</glyph>
